{
  "accessors": [
    {
      "bufferView": 2,
      "componentType": 5126,
      "count": 2466,
      "max": [
        46.335929870605469,
        1.1131861209869385,
        13.050378799438477
      ],
      "min": [
        -52.190223693847656,
        -1.9422800540924072,
        -3.9684653282165527
      ],
      "type": "VEC3"
    },
    {
      "bufferView": 2,
      "byteOffset": 29592,
      "componentType": 5126,
      "count": 2466,
      "max": [
        1,
        1,
        1
      ],
      "min": [
        -1,
        -1,
        -1
      ],
      "type": "VEC3"
    },
    {
      "bufferView": 3,
      "componentType": 5126,
      "count": 2466,
      "max": [
        1,
        1,
        1,
        1
      ],
      "min": [
        -0.62729793787002563,
        -1,
        -0.99992549419403076,
        1
      ],
      "type": "VEC4"
    },
    {
      "bufferView": 1,
      "componentType": 5126,
      "count": 2466,
      "max": [
        0.94510358572006226,
        0.99800801277160645
      ],
      "min": [
        0.0018864622106775641,
        0.0019920342601835728
      ],
      "type": "VEC2"
    },
    {
      "bufferView": 1,
      "byteOffset": 19728,
      "componentType": 5126,
      "count": 2466,
      "max": [
        0.94510358572006226,
        0.99800801277160645
      ],
      "min": [
        0.0018864622106775641,
        0.0019920342601835728
      ],
      "type": "VEC2"
    },
    {
      "bufferView": 1,
      "byteOffset": 39456,
      "componentType": 5126,
      "count": 2466,
      "max": [
        0.94510358572006226,
        0.99800801277160645
      ],
      "min": [
        0.0018864622106775641,
        0.0019920342601835728
      ],
      "type": "VEC2"
    },
    {
      "bufferView": 1,
      "byteOffset": 59184,
      "componentType": 5126,
      "count": 2466,
      "max": [
        0.94510358572006226,
        0.99800801277160645
      ],
      "min": [
        0.0018864622106775641,
        0.0019920342601835728
      ],
      "type": "VEC2"
    },
    {
      "bufferView": 0,
      "componentType": 5125,
      "count": 3747,
      "max": [
        2465
      ],
      "min": [
        0
      ],
      "type": "SCALAR"
    },
    {
      "bufferView": 2,
      "byteOffset": 59184,
      "componentType": 5126,
      "count": 176,
      "max": [
        46.335929870605469,
        0.73358941078186035,
        7.6704216003417969
      ],
      "min": [
        -52.190223693847656,
        -1.857163667678833,
        1.4114913940429688
      ],
      "type": "VEC3"
    },
    {
      "bufferView": 2,
      "byteOffset": 61296,
      "componentType": 5126,
      "count": 176,
      "max": [
        1,
        0.99623805284500122,
        0.99995297193527222
      ],
      "min": [
        -1,
        -0.99856328964233398,
        -0.99995297193527222
      ],
      "type": "VEC3"
    },
    {
      "bufferView": 3,
      "byteOffset": 39456,
      "componentType": 5126,
      "count": 176,
      "max": [
        0.99999082088470459,
        1,
        1,
        1
      ],
      "min": [
        -0.91814905405044556,
        -0.99995297193527222,
        -0.9965023398399353,
        1
      ],
      "type": "VEC4"
    },
    {
      "bufferView": 1,
      "byteOffset": 78912,
      "componentType": 5126,
      "count": 176,
      "max": [
        0.74542170763015747,
        0.96343618631362915
      ],
      "min": [
        0.064822718501091003,
        0.0019920342601835728
      ],
      "type": "VEC2"
    },
    {
      "bufferView": 1,
      "byteOffset": 80320,
      "componentType": 5126,
      "count": 176,
      "max": [
        0.74542170763015747,
        0.96343618631362915
      ],
      "min": [
        0.064822718501091003,
        0.0019920342601835728
      ],
      "type": "VEC2"
    },
    {
      "bufferView": 1,
      "byteOffset": 81728,
      "componentType": 5126,
      "count": 176,
      "max": [
        0.74542170763015747,
        0.96343618631362915
      ],
      "min": [
        0.064822718501091003,
        0.0019920342601835728
      ],
      "type": "VEC2"
    },
    {
      "bufferView": 1,
      "byteOffset": 83136,
      "componentType": 5126,
      "count": 176,
      "max": [
        0.74542170763015747,
        0.96343618631362915
      ],
      "min": [
        0.064822718501091003,
        0.0019920342601835728
      ],
      "type": "VEC2"
    },
    {
      "bufferView": 0,
      "byteOffset": 14988,
      "componentType": 5125,
      "count": 276,
      "max": [
        175
      ],
      "min": [
        0
      ],
      "type": "SCALAR"
    },
    {
      "bufferView": 2,
      "byteOffset": 63408,
      "componentType": 5126,
      "count": 43,
      "max": [
        27.499557495117188,
        0.25762811303138733,
        5.9884371757507324
      ],
      "min": [
        24.604583740234375,
        -1.5805766582489014,
        3.0934724807739258
      ],
      "type": "VEC3"
    },
    {
      "bufferView": 2,
      "byteOffset": 63924,
      "componentType": 5126,
      "count": 43,
      "max": [
        1,
        2.104888636722535e-07,
        1
      ],
      "min": [
        -1,
        -1.5646941164959571e-07,
        -1
      ],
      "type": "VEC3"
    },
    {
      "bufferView": 3,
      "byteOffset": 42272,
      "componentType": 5126,
      "count": 43,
      "max": [
        1,
        1,
        0.50000035762786865,
        1
      ],
      "min": [
        -3.7711961908826197e-07,
        -5.6399176884269764e-08,
        -0.50000053644180298,
        1
      ],
      "type": "VEC4"
    },
    {
      "bufferView": 1,
      "byteOffset": 84544,
      "componentType": 5126,
      "count": 43,
      "max": [
        0.58903706073760986,
        0.93560272455215454
      ],
      "min": [
        0.22254365682601929,
        0.16742970049381256
      ],
      "type": "VEC2"
    },
    {
      "bufferView": 0,
      "byteOffset": 16092,
      "componentType": 5125,
      "count": 72,
      "max": [
        42
      ],
      "min": [
        0
      ],
      "type": "SCALAR"
    },
    {
      "bufferView": 2,
      "byteOffset": 64440,
      "componentType": 5126,
      "count": 2393,
      "max": [
        47.869449615478516,
        1.3016508817672729,
        5.7663865089416504
      ],
      "min": [
        25.374654769897461,
        -2.6220011711120605,
        3.3155250549316406
      ],
      "type": "VEC3"
    },
    {
      "bufferView": 2,
      "byteOffset": 93156,
      "componentType": 5126,
      "count": 2393,
      "max": [
        1,
        1,
        1
      ],
      "min": [
        -1,
        -1,
        -1
      ],
      "type": "VEC3"
    },
    {
      "bufferView": 3,
      "byteOffset": 42960,
      "componentType": 5126,
      "count": 2393,
      "max": [
        1,
        0.83470708131790161,
        1,
        1
      ],
      "min": [
        -0.86573570966720581,
        -1,
        -1,
        1
      ],
      "type": "VEC4"
    },
    {
      "bufferView": 1,
      "byteOffset": 84888,
      "componentType": 5126,
      "count": 2393,
      "max": [
        0.90822267532348633,
        0.2622637152671814
      ],
      "min": [
        0.38227245211601257,
        0.12289212644100189
      ],
      "type": "VEC2"
    },
    {
      "bufferView": 1,
      "byteOffset": 104032,
      "componentType": 5126,
      "count": 2393,
      "max": [
        0.90822267532348633,
        0.2622637152671814
      ],
      "min": [
        0.38227245211601257,
        0.12289212644100189
      ],
      "type": "VEC2"
    },
    {
      "bufferView": 1,
      "byteOffset": 123176,
      "componentType": 5126,
      "count": 2393,
      "max": [
        0.90822267532348633,
        0.2622637152671814
      ],
      "min": [
        0.38227245211601257,
        0.12289212644100189
      ],
      "type": "VEC2"
    },
    {
      "bufferView": 1,
      "byteOffset": 142320,
      "componentType": 5126,
      "count": 2393,
      "max": [
        0.90822267532348633,
        0.2622637152671814
      ],
      "min": [
        0.38227245211601257,
        0.12289212644100189
      ],
      "type": "VEC2"
    },
    {
      "bufferView": 0,
      "byteOffset": 16380,
      "componentType": 5125,
      "count": 3495,
      "max": [
        2392
      ],
      "min": [
        0
      ],
      "type": "SCALAR"
    },
    {
      "bufferView": 2,
      "byteOffset": 121872,
      "componentType": 5126,
      "count": 48,
      "max": [
        45.751838684082031,
        0.41858059167861938,
        5.5213236808776855
      ],
      "min": [
        34.503730773925781,
        -1.542151927947998,
        3.5605893135070801
      ],
      "type": "VEC3"
    },
    {
      "bufferView": 2,
      "byteOffset": 122448,
      "componentType": 5126,
      "count": 48,
      "max": [
        9.2588663846981945e-08,
        1,
        1
      ],
      "min": [
        -1.0483635293212501e-07,
        -1,
        -1
      ],
      "type": "VEC3"
    },
    {
      "bufferView": 3,
      "byteOffset": 81248,
      "componentType": 5126,
      "count": 48,
      "max": [
        2.8090438419781094e-08,
        1,
        1,
        1
      ],
      "min": [
        -2.8090070713915338e-08,
        -1,
        -1,
        1
      ],
      "type": "VEC4"
    },
    {
      "bufferView": 1,
      "byteOffset": 161464,
      "componentType": 5126,
      "count": 48,
      "max": [
        0.54947173595428467,
        0.13148249685764313
      ],
      "min": [
        0.46717190742492676,
        0.0019920342601835728
      ],
      "type": "VEC2"
    },
    {
      "bufferView": 1,
      "byteOffset": 161848,
      "componentType": 5126,
      "count": 48,
      "max": [
        0.54947173595428467,
        0.13148249685764313
      ],
      "min": [
        0.46717190742492676,
        0.0019920342601835728
      ],
      "type": "VEC2"
    },
    {
      "bufferView": 1,
      "byteOffset": 162232,
      "componentType": 5126,
      "count": 48,
      "max": [
        0.54947173595428467,
        0.13148249685764313
      ],
      "min": [
        0.46717190742492676,
        0.0019920342601835728
      ],
      "type": "VEC2"
    },
    {
      "bufferView": 1,
      "byteOffset": 162616,
      "componentType": 5126,
      "count": 48,
      "max": [
        0.54947173595428467,
        0.13148249685764313
      ],
      "min": [
        0.46717190742492676,
        0.0019920342601835728
      ],
      "type": "VEC2"
    },
    {
      "bufferView": 0,
      "byteOffset": 30360,
      "componentType": 5125,
      "count": 72,
      "max": [
        47
      ],
      "min": [
        0
      ],
      "type": "SCALAR"
    },
    {
      "bufferView": 2,
      "byteOffset": 123024,
      "componentType": 5126,
      "count": 2942,
      "max": [
        24.008377075195312,
        29.103767395019531,
        6.6093730926513672
      ],
      "min": [
        -24.473190307617188,
        -29.592906951904297,
        -32.560699462890625
      ],
      "type": "VEC3"
    },
    {
      "bufferView": 2,
      "byteOffset": 158328,
      "componentType": 5126,
      "count": 2942,
      "max": [
        0.99997711181640625,
        1,
        0.99658626317977905
      ],
      "min": [
        -0.9992181658744812,
        -0.99862539768218994,
        -0.99999231100082397
      ],
      "type": "VEC3"
    },
    {
      "bufferView": 3,
      "byteOffset": 82016,
      "componentType": 5126,
      "count": 2942,
      "max": [
        1,
        0.92979699373245239,
        0.99999505281448364,
        1
      ],
      "min": [
        -0.95355683565139771,
        -0.89697331190109253,
        -1,
        1
      ],
      "type": "VEC4"
    },
    {
      "bufferView": 1,
      "byteOffset": 163000,
      "componentType": 5126,
      "count": 2942,
      "max": [
        0.9586825966835022,
        0.99800795316696167
      ],
      "min": [
        0.0019135259790346026,
        0.0019920545164495707
      ],
      "type": "VEC2"
    },
    {
      "bufferView": 1,
      "byteOffset": 186536,
      "componentType": 5126,
      "count": 2942,
      "max": [
        0.9586825966835022,
        0.99800795316696167
      ],
      "min": [
        0.0019135259790346026,
        0.0019920545164495707
      ],
      "type": "VEC2"
    },
    {
      "bufferView": 1,
      "byteOffset": 210072,
      "componentType": 5126,
      "count": 2942,
      "max": [
        0.9586825966835022,
        0.99800795316696167
      ],
      "min": [
        0.0019135259790346026,
        0.0019920545164495707
      ],
      "type": "VEC2"
    },
    {
      "bufferView": 1,
      "byteOffset": 233608,
      "componentType": 5126,
      "count": 2942,
      "max": [
        0.9586825966835022,
        0.99800795316696167
      ],
      "min": [
        0.0019135259790346026,
        0.0019920545164495707
      ],
      "type": "VEC2"
    },
    {
      "bufferView": 0,
      "byteOffset": 30648,
      "componentType": 5125,
      "count": 4512,
      "max": [
        2941
      ],
      "min": [
        0
      ],
      "type": "SCALAR"
    }
  ],
  "asset": {
    "extras": {
      "author": "wisintel (https://sketchfab.com/wisintel)",
      "license": "CC-BY-4.0 (http://creativecommons.org/licenses/by/4.0/)",
      "source": "https://sketchfab.com/models/bb72a999a93f4ac1b59fbed7d260f37f",
      "title": "Excalibur"
    },
    "generator": "Sketchfab-3.40.2",
    "version": "2.0"
  },
  "bufferViews": [
    {
      "buffer": 0,
      "byteLength": 48696,
      "byteOffset": 0,
      "name": "floatBufferViews",
      "target": 34963
    },
    {
      "buffer": 0,
      "byteLength": 257144,
      "byteOffset": 48696,
      "byteStride": 8,
      "name": "floatBufferViews",
      "target": 34962
    },
    {
      "buffer": 0,
      "byteLength": 193632,
      "byteOffset": 305840,
      "byteStride": 12,
      "name": "floatBufferViews",
      "target": 34962
    },
    {
      "buffer": 0,
      "byteLength": 129088,
      "byteOffset": 499472,
      "byteStride": 16,
      "name": "floatBufferViews",
      "target": 34962
    }
  ],
  "buffers": [
    {
      "byteLength": 628560,
      "uri": "scene.bin"
    }
  ],
  "images": [
    {
      "uri": "textures/Rubber_metallicRoughness.png"
    },
    {
      "uri": "textures/Rubber_normal.png"
    },
    {
      "uri": "textures/Rubber_baseColor.png"
    },
    {
      "uri": "textures/StingrayPBS6_metallicRoughness.png"
    },
    {
      "uri": "textures/StingrayPBS6_normal.png"
    },
    {
      "uri": "textures/StingrayPBS6_baseColor.png"
    },
    {
      "uri": "textures/Gold_metallicRoughness.png"
    },
    {
      "uri": "textures/Gold_normal.png"
    },
    {
      "uri": "textures/Gold_baseColor.png"
    },
    {
      "uri": "textures/Ruby_metallicRoughness.png"
    },
    {
      "uri": "textures/Ruby_normal.png"
    },
    {
      "uri": "textures/Ruby_baseColor.png"
    },
    {
      "uri": "textures/Blade_metallicRoughness.png"
    },
    {
      "uri": "textures/Blade_normal.png"
    },
    {
      "uri": "textures/Blade_baseColor.png"
    }
  ],
  "materials": [
    {
      "doubleSided": true,
      "emissiveFactor": [
        0,
        0,
        0
      ],
      "name": "Gold",
      "normalTexture": {
        "index": 7,
        "scale": 1,
        "texCoord": 0
      },
      "pbrMetallicRoughness": {
        "baseColorFactor": [
          1,
          1,
          1,
          1
        ],
        "baseColorTexture": {
          "index": 8,
          "texCoord": 0
        },
        "metallicFactor": 1,
        "metallicRoughnessTexture": {
          "index": 6,
          "texCoord": 0
        },
        "roughnessFactor": 1
      }
    },
    {
      "doubleSided": true,
      "emissiveFactor": [
        0,
        0,
        0
      ],
      "name": "Blade",
      "normalTexture": {
        "index": 13,
        "scale": 1,
        "texCoord": 0
      },
      "pbrMetallicRoughness": {
        "baseColorFactor": [
          1,
          1,
          1,
          1
        ],
        "baseColorTexture": {
          "index": 14,
          "texCoord": 0
        },
        "metallicFactor": 1,
        "metallicRoughnessTexture": {
          "index": 12,
          "texCoord": 0
        },
        "roughnessFactor": 1
      }
    },
    {
      "doubleSided": true,
      "emissiveFactor": [
        0,
        0,
        0
      ],
      "name": "lambert1",
      "pbrMetallicRoughness": {
        "baseColorFactor": [
          0.5,
          0.5,
          0.5,
          1
        ],
        "metallicFactor": 0,
        "roughnessFactor": 0.20000000000000001
      }
    },
    {
      "doubleSided": true,
      "emissiveFactor": [
        0,
        0,
        0
      ],
      "name": "Ruby",
      "normalTexture": {
        "index": 10,
        "scale": 1,
        "texCoord": 0
      },
      "pbrMetallicRoughness": {
        "baseColorFactor": [
          1,
          1,
          1,
          1
        ],
        "baseColorTexture": {
          "index": 11,
          "texCoord": 0
        },
        "metallicFactor": 1,
        "metallicRoughnessTexture": {
          "index": 9,
          "texCoord": 0
        },
        "roughnessFactor": 1
      }
    },
    {
      "doubleSided": true,
      "emissiveFactor": [
        0,
        0,
        0
      ],
      "name": "Rubber",
      "normalTexture": {
        "index": 1,
        "scale": 1,
        "texCoord": 0
      },
      "pbrMetallicRoughness": {
        "baseColorFactor": [
          1,
          1,
          1,
          1
        ],
        "baseColorTexture": {
          "index": 2,
          "texCoord": 0
        },
        "metallicFactor": 1,
        "metallicRoughnessTexture": {
          "index": 0,
          "texCoord": 0
        },
        "roughnessFactor": 1
      }
    },
    {
      "doubleSided": true,
      "emissiveFactor": [
        0,
        0,
        0
      ],
      "name": "StingrayPBS6",
      "normalTexture": {
        "index": 4,
        "scale": 1,
        "texCoord": 0
      },
      "pbrMetallicRoughness": {
        "baseColorFactor": [
          1,
          1,
          1,
          1
        ],
        "baseColorTexture": {
          "index": 5,
          "texCoord": 0
        },
        "metallicFactor": 1,
        "metallicRoughnessTexture": {
          "index": 3,
          "texCoord": 0
        },
        "roughnessFactor": 1
      }
    }
  ],
  "meshes": [
    {
      "name": "Box001_Gold_0",
      "primitives": [
        {
          "attributes": {
            "NORMAL": 1,
            "POSITION": 0,
            "TANGENT": 2,
            "TEXCOORD_0": 3,
            "TEXCOORD_1": 4,
            "TEXCOORD_2": 5,
            "TEXCOORD_3": 6
          },
          "indices": 7,
          "material": 0,
          "mode": 4
        }
      ]
    },
    {
      "name": "Box001_Blade_0",
      "primitives": [
        {
          "attributes": {
            "NORMAL": 9,
            "POSITION": 8,
            "TANGENT": 10,
            "TEXCOORD_0": 11,
            "TEXCOORD_1": 12,
            "TEXCOORD_2": 13,
            "TEXCOORD_3": 14
          },
          "indices": 15,
          "material": 1,
          "mode": 4
        }
      ]
    },
    {
      "name": "Box001_lambert1_0",
      "primitives": [
        {
          "attributes": {
            "NORMAL": 17,
            "POSITION": 16,
            "TANGENT": 18,
            "TEXCOORD_0": 19
          },
          "indices": 20,
          "material": 2,
          "mode": 4
        }
      ]
    },
    {
      "name": "Box001_Ruby_0",
      "primitives": [
        {
          "attributes": {
            "NORMAL": 22,
            "POSITION": 21,
            "TANGENT": 23,
            "TEXCOORD_0": 24,
            "TEXCOORD_1": 25,
            "TEXCOORD_2": 26,
            "TEXCOORD_3": 27
          },
          "indices": 28,
          "material": 3,
          "mode": 4
        }
      ]
    },
    {
      "name": "Box001_Rubber_0",
      "primitives": [
        {
          "attributes": {
            "NORMAL": 30,
            "POSITION": 29,
            "TANGENT": 31,
            "TEXCOORD_0": 32,
            "TEXCOORD_1": 33,
            "TEXCOORD_2": 34,
            "TEXCOORD_3": 35
          },
          "indices": 36,
          "material": 4,
          "mode": 4
        }
      ]
    },
    {
      "name": "Box002_StingrayPBS6_0",
      "primitives": [
        {
          "attributes": {
            "NORMAL": 38,
            "POSITION": 37,
            "TANGENT": 39,
            "TEXCOORD_0": 40,
            "TEXCOORD_1": 41,
            "TEXCOORD_2": 42,
            "TEXCOORD_3": 43
          },
          "indices": 44,
          "material": 5,
          "mode": 4
        }
      ]
    }
  ],
  "nodes": [
    {
      "children": [
        1
      ],
      "name": "RootNode (gltf orientation matrix)",
      "rotation": [
        -0.70710678118654746,
        -0,
        -0,
        0.70710678118654757
      ]
    },
    {
      "children": [
        2
      ],
      "name": "RootNode (model correction matrix)"
    },
    {
      "children": [
        3
      ],
      "matrix": [
        1,
        0,
        0,
        0,
        0,
        0,
        1,
        0,
        0,
        -1,
        0,
        0,
        0,
        0,
        0,
        1
      ],
      "name": "43e0cd58bc8b4faca9bcb0f61d9c3104.fbx"
    },
    {
      "children": [
        4,
        10
      ],
      "name": "RootNode"
    },
    {
      "children": [
        5,
        6,
        7,
        8,
        9
      ],
      "matrix": [
        -0.22484445565711517,
        2.3868191360127402,
        -0.83913001908943263,
        0,
        -0.61775469164954588,
        -0.86873138436272179,
        -2.3054901277128867,
        0,
        -2.4534514297044092,
        -6.5587397743726401e-08,
        0.65740085814879046,
        0,
        10.662130355834961,
        42.390159606933594,
        -1.8390213956293077e-15,
        1
      ],
      "name": "Box001"
    },
    {
      "mesh": 0,
      "name": "Box001_Gold_0"
    },
    {
      "mesh": 1,
      "name": "Box001_Blade_0"
    },
    {
      "mesh": 2,
      "name": "Box001_lambert1_0"
    },
    {
      "mesh": 3,
      "name": "Box001_Ruby_0"
    },
    {
      "mesh": 4,
      "name": "Box001_Rubber_0"
    },
    {
      "children": [
        11
      ],
      "matrix": [
        2.5399999618530273,
        0,
        0,
        0,
        0,
        5.6399328803925005e-16,
        -2.5399999618530273,
        0,
        0,
        2.5399999618530273,
        5.6399328803925005e-16,
        0,
        13.059445381164551,
        0,
        0,
        1
      ],
      "name": "Box002"
    },
    {
      "mesh": 5,
      "name": "Box002_StingrayPBS6_0"
    }
  ],
  "samplers": [
    {
      "magFilter": 9729,
      "minFilter": 9987,
      "wrapS": 10497,
      "wrapT": 10497
    }
  ],
  "scene": 0,
  "scenes": [
    {
      "name": "OSG_Scene",
      "nodes": [
        0
      ]
    }
  ],
  "textures": [
    {
      "sampler": 0,
      "source": 0
    },
    {
      "sampler": 0,
      "source": 1
    },
    {
      "sampler": 0,
      "source": 2
    },
    {
      "sampler": 0,
      "source": 3
    },
    {
      "sampler": 0,
      "source": 4
    },
    {
      "sampler": 0,
      "source": 5
    },
    {
      "sampler": 0,
      "source": 6
    },
    {
      "sampler": 0,
      "source": 7
    },
    {
      "sampler": 0,
      "source": 8
    },
    {
      "sampler": 0,
      "source": 9
    },
    {
      "sampler": 0,
      "source": 10
    },
    {
      "sampler": 0,
      "source": 11
    },
    {
      "sampler": 0,
      "source": 12
    },
    {
      "sampler": 0,
      "source": 13
    },
    {
      "sampler": 0,
      "source": 14
    }
  ]
}

